<svg xmlns="http://www.w3.org/2000/svg" width="4959" height="1276"><path d="M2 788.58h312.7l-5.085-108.979L2 772.786 2 788.583zm530.188 0h294l142.634-278.4c-61.8 13.552-290.747 64.84-515.454 129l78.835 149.375zM1352 0H944.667L676.8 515.284l-4.2-.066L404.93 0H0l2 746 306.353-95.73-14.43-309.253 2.184.02 143 270.9c135.572-38.37 393-109.473 550.46-142l64-124.76 1.425.013-3.866 109.865c53.94-12.458 192.6-43.454 301-63.528L1352 0zm2084 304l-794.166 1.167C2639.5 338 2684 487.5 3012 493h316s94-2.5 125.5 26c4.698 4.251 4.672 21.069 4.32 27.976C3455.5 592.5 3352 593 3329 593h-647.167v181.167h-2L2374 318s-162.333 4.708-293 15.375l57 90h-245.333l46.938-79-339.365 43.895-248.407 383.572.073-336.177c-48.065 8.113-161.033 27.87-302.336 57.18l-10.408 295.746h638.1l99-172.5H2241l104.597 172.5h1028.949s163.794-3.717 254.756-39.901C3719 713 3775 648.191 3775 529c0-222-273-225-339-225zm-1805.375 37.5L1852.5 0h328L2345 265.125l-292.75 22.75L2011 224.25 1968 295l-337.375 46.5zm1004.042-90.167l316-8.667s5.332-45.333 146.666-45.333h623.334V0h-696c-77.334 4-230 14-307.697 78.21-51.206 42.318-78.97 85.79-82.303 173.123zm1184-8.666l315.83-1.328S4146 197 4277 197h627V0l-694 1s-182.333-2-285.548 60.12c-58.918 35.46-103.45 97.547-105.785 181.547zM3822 300.91l781.667 1.757C4758.535 303.777 4861 339 4907.294 388.7 4966.738 452.518 4959 534 4959 534c0 260.667-317 248.667-421.666 254.667h-672.667V593H4486s152.5 5.25 154.359-42c.333-8.473 1.914-19.404-.609-25.498-10.25-24.75-73.416-30.836-99.1-32.167H4225c-64.978-1.196-360.333 6.667-403-192.423zm1092.667 605.757h-558.666v86h210V1276h142.666V992.667h206zM4848 1221h-41.667v8.833h15.833v43h10v-43H4848zm33.5 51.833h9.5l10.333-39.167v39.167h10v-51.833h-15.666l-9.5 34.833-9.5-34.833h-16v51.833H4871v-39.5zM3711.768 993.64l342.899.359v-87.333H3713.25h-.038s-54.854.229-73.962 1.833c-35.75 3-64.75 15.75-79.5 40.25s-11.75 60.5-11.75 60.5v160.516c-1.667 63.432 18.1 79.065 45.334 94.235C3620.25 1279 3683.76 1276 3683.76 1276h370.906v-86.333h-343.334s-11.359.814-15.724-5.338c-3.225-4.546-3.787-10.114-3.859-13.66V1007.5c1.938-14.25 14.072-13.728 20.018-13.859zm-885 0l341.899.359v-87.333H2828.25h-.038s-54.854.23-73.96 1.833c-35.75 3-64.75 15.75-79.5 40.25s-11.75 60.5-11.75 60.5v160.516c-1.667 63.432 18.111 79.065 45.334 94.235C2735.25 1279 2798.761 1276 2798.761 1276h369.906v-86.333h-342.334s-11.359.814-15.724-5.338c-3.225-4.546-3.787-10.114-3.859-13.662V1134.5h361.917V1048H2806.75v-40.5c1.938-14.25 14.072-13.728 20.018-13.859zm-2661.749 0l345.899.36v-87.333H166.501h-.038s-54.854.229-73.96 1.833c-35.75 3-64.75 15.75-79.5 40.25s-11.75 60.5-11.75 60.5v160.516c-1.667 63.432 18.111 79.065 45.334 94.235C73.5 1279 137 1276 137 1276h373.906v-86.333H164.584s-11.359.814-15.724-5.338c-3.225-4.546-3.787-10.114-3.859-13.662V1134.5h365.917V1048H145v-40.5c1.937-14.25 14.072-13.728 20-13.859zm723.232 15.609s-3-36 11.75-60.5 43.75-37.25 79.5-40.25c19.108-1.604 73.962-1.833 73.96-1.833h.038 340.417V994l-341.899-.359c-5.945.132-18.08-.391-20 13.859v45.5h361.917v85.5h-361.917V1276H888l.25-266.75zm887.089 0s-3-36 11.75-60.5 43.75-37.25 79.5-40.25c19.108-1.6 74-1.833 73.96-1.83h.038 340.417V994l-341.9-.359c-5.945.132-18.08-.39-20 13.859v45.5h361.92v85.5H1919.1V1276h-144l.25-266.75z"/></svg>